#!OML:ASF F:\VICON\USERDATA\INSTALL\rory3\rory3.ASF
:FULLY-SPECIFIED
:DEGREES
9
root 0.5456637327450335 17.933698332303624 -26.818784010812603 -3.5683935584356683 2.187751159554586 0.2886153728560985
lfemur -4.798661891425789 -1.027255096031839 -25.16269058396041
ltibia 26.01930376827117
lfoot -13.174793265139284 -0.5318998501591468
ltoes -21.827983577142874
rfemur -29.211189101799548 -3.948491137693574 22.19210753218546
rtibia 66.0630850215834
rfoot -9.718637886910777 -7.279432943005934
rtoes -2.120794238342037
lowerback 13.387873141697343 -0.29664576287878935 -2.034782871799737
upperback 0.6922551780918702 -0.6284804782295776 1.028240137053655
thorax -6.751467511850108 -0.22752675971334554 2.358956319024262
lowerneck -17.848782824964427 -3.0354391858253464 -1.623286223367422
upperneck 22.303488876398387 -3.870129673747299 0.3362195986632319
head 10.097683729008132 -1.8838793213761567 -0.1464346874140419
lclavicle -2.7003079221705187e-15 -2.1517147263308328e-15
lhumerus -25.951907534856645 3.2271610069510714 81.21789856570358
lradius 25.107601183858346
lwrist 8.454437157399193
lhand -27.497810758144094 18.789200726032266
lfingers 7.125020000000001
lthumb -0.900933758102513 48.767100670148594
rclavicle -2.7003079221705187e-15 -2.1517147263308328e-15
rhumerus -31.9690979876112 -23.371194570746557 -76.90469980219662
rradius 24.29140826385322
rwrist 5.880754613313526
rhand -16.64081037924881 21.834203274388123
rfingers 7.125020000000001
rthumb 9.581929619926331 -7.927936932044007
10
root 0.5569073824329543 17.90370012979235 -26.50678414392787 -3.517803915321146 2.502080029463709 0.6798992558125949
lfemur -3.60625267740751 -0.8481848984218745 -25.63988982375658
ltibia 25.792903899498185
lfoot -13.986192387368654 -0.5151248766140677
ltoes -21.319084174769507
rfemur -30.23668836796314 -4.0908006972669835 21.810708154673524
rtibia 62.55228689882091
rfoot -10.948196426277171 -8.114600682301088
rtoes -3.2242527939851655
lowerback 13.580970947801397 -0.5639249904717616 -2.713591151867734
upperback 0.27389464420337484 -1.0807536087921785 1.216847655253357
thorax -7.266626791575725 -0.40846707562283535 3.041253733692087
lowerneck -16.180403983445878 -2.864173359701273 -2.0731485084591634
upperneck 21.84129475953659 -3.514434400503027 0.25448942133573427
head 9.62515873966955 -1.7773933334514174 -0.021715985590154058
lclavicle -2.700307965421775e-15 -2.1517146901386462e-15
lhumerus -26.067807334090688 3.4557406160198534 81.23129850724007
lradius 25.540100338637075
lwrist 8.662636579247904
lhand -27.821309111168112 16.875904629991126
lfingers 7.125020000000001
lthumb -1.2132991113575038 46.852204571947816
rclavicle -2.700307965421775e-15 -2.1517146901386462e-15
rhumerus -33.30679586606703 -22.397296239379312 -76.30800125138347
rradius 24.26400832142655
rwrist 5.870694639201842
rhand -17.786301270595327 24.263492884482062
rfingers 7.125020000000001
rthumb 8.476528728498726 -5.546377146287467
11
root 0.5720079119542367 17.902800183717012 -26.181784282589664 -3.2488958123378078 2.8270188612273603 0.8664257233138537
lfemur -2.211573596716306 -1.0830348460901003 -25.935189353328674
ltibia 24.856204442432546
lfoot -14.450691884873624 -0.07691486769171352
ltoes -21.28018422045171
rfemur -30.905287889520366 -4.066640772038303 21.619008467549648
rtibia 58.15168925183767
rfoot -11.183396146875568 -9.275577539667713
rtoes -4.068261689231352
lowerback 13.21257513335947 -0.8500000934237644 -3.0183303797340306
upperback 0.2825124286125488 -1.486801930421592 1.3734855941261712
thorax -7.009432143701375 -0.5991513008415089 3.4478821929129237
lowerneck -16.107304910492747 -2.695777463634865 -2.393653011970743
upperneck 21.571798189882216 -3.202528545350873 0.29404202321059336
head 9.520082077630997 -1.6550879415547592 0.08882252533696738
lclavicle -2.700307982390351e-15 -2.151714670875114e-15
lhumerus -25.421108454326593 3.6889102172385444 81.1775987415304
lradius 26.139599167052914
lwrist 8.713946436764996
lhand -27.353811491264768 20.15889793125233
lfingers 7.125020000000001
lthumb -0.7617844916773362 50.1372978782298
rclavicle -2.700307982390351e-15 -2.151714670875114e-15
rhumerus -33.59149541454305 -21.978996956074127 -76.16140160742636
rradius 24.2009084540133
rwrist 5.927064494139779
rhand -18.150098377772856 23.201297427419625
rfingers 7.125020000000001
rthumb 8.12551162090162 -6.622462531077652
12
root 0.5777907317821661 17.904400087850945 -25.85998441988612 -3.017907441849091 2.760099101820634 1.0870690934176244
lfemur -0.7135875841202859 -0.9074476328733434 -26.166288985174646
ltibia 23.76930507242649
lfoot -14.811991494020129 -0.14038846759089063
ltoes -20.022085697901257
rfemur -31.485987473977858 -3.9083812618275915 21.578308533976674
rtibia 53.14899192679955
rfoot -10.647196783844677 -10.849193280067436
rtoes -5.392089956424601
lowerback 13.302074116509722 -0.8763279188362241 -3.372339482762692
upperback 0.18404589194660875 -1.5777015546947541 1.3986952624036464
thorax -7.148239255176642 -0.6259770511625383 3.6979912452104013
lowerneck -16.160004242156635 -2.7208868517003486 -2.266685189404004
upperneck 21.383900581577738 -3.225208243965378 0.1135648398421174
head 9.458634029645946 -1.6755571703351102 0.0032367945138241927
lclavicle -2.7003079495772205e-15 -2.151714672626335e-15
lhumerus -24.889709374835878 3.348110800095132 81.21759856701246
lradius 26.768097938794952
lwrist 9.325934737327877
lhand -27.527610606428837 23.438791238838867
lfingers 7.125020000000001
lthumb -0.929700606447847 53.41649119653361
rclavicle -2.7003079495772205e-15 -2.151714672626335e-15
rhumerus -34.126294566369445 -22.394296244519364 -75.7360026405822
rradius 23.935809011045734
rwrist 6.120923995262194
rhand -17.73800165466164 23.872194558038327
rfingers 7.125020000000001
rthumb 8.523228343690981 -5.935765476244487
13
root 0.5823265904609646 17.88580120229396 -25.532784559486547 -2.735619433254519 2.7721990583182636 1.2869385228271732
lfemur 0.6929984887223721 -0.6592777448900196 -26.3602886761228
ltibia 22.759405657789394
lfoot -15.263591005480297 -0.18089340371271145
ltoes -19.938685795842048
rfemur -31.238787650871465 -3.022104004721856 21.048309398996775
rtibia 47.839694765701545
rfoot -11.373295921287305 -11.035392776046407
rtoes 3.211908781489828
lowerback 13.073876709192541 -1.4151293458857754 -4.5152265869699235
upperback -0.6532471615210378 -2.4193980756046862 2.1232857278482395
thorax -7.771336288757457 -0.9437500935101097 5.299635176329723
lowerneck -12.853246178662545 -2.098462020657739 -3.2864477009981417
upperneck 20.471612193838634 -2.1779121612511223 -0.08174599421509487
head 8.534953372131366 -1.293411568444614 0.2788420432105502
lclavicle -2.7003079347497077e-15 -2.1517147251632543e-15
lhumerus -26.677006278813586 4.6421085870187735 81.41789769311383
lradius 27.731696055661512
lwrist 9.042955523136005
lhand -29.633999882502405 20.412097414614905
lfingers 7.125020000000001
lthumb -2.964039881705114 50.371197401635285
rclavicle -2.7003079347497077e-15 -2.1517147251632543e-15
rhumerus -35.71219205118899 -19.82120065314339 -74.94380456457385
rradius 23.801609293028974
rwrist 5.949954435234858
rhand -17.28750523689507 23.85369463716123
rfingers 7.125020000000001
rthumb 8.957904761930141 -5.936115474743384
14
root 0.5847465150647327 17.88130147191727 -25.199784701561587 -2.3123124194808535 2.887728642960525 1.2888685173173786
lfemur 2.071033580384565 -0.7229784594554842 -26.338088711488528
ltibia 21.569306347600623
lfoot -15.413890842886094 -0.2048523659283057
ltoes -19.614786176213983
rfemur -31.493887468324736 -2.9310842864141464 21.230809101136064
rtibia 41.69289805241779
rfoot -9.422578238609908 -13.252386774893754
rtoes -2.948323155159466
lowerback 12.455683732840754 -1.2325105568845849 -3.9738179587652405
upperback -0.32124446722135325 -2.1019593877139355 1.645562013996672
thorax -7.13699948907202 -0.8484579804354073 4.380708658286791
lowerneck -14.219728848846612 -2.404764555836487 -2.459481883039249
upperneck 20.672409637944753 -2.7929839876978164 0.13154465886241695
head 8.851983301068394 -1.4931740419888495 0.12605545115464895
lclavicle -2.70030798720811e-15 -2.1517146860524595e-15
lhumerus -24.771709579239516 2.792691750007704 81.26469836151757
lradius 27.802995916322136
lwrist 9.610113948187479
lhand -29.66459972671426 20.075198102036502
lfingers 7.125020000000001
lthumb -2.9935497261334776 50.03399808871382
rclavicle -2.70030798720811e-15 -2.1517146860524595e-15
rhumerus -35.735492014236016 -22.24189650563409 -74.78640494684637
rradius 23.387510163142633
rwrist 6.761882345821466
rhand -17.718601808924298 22.596400014524622
rfingers 7.125020000000001
rthumb 8.541908189767883 -7.210800007764039
15
root 0.5791826884137552 17.880801501875414 -24.860284846409822 -1.9991546286576731 2.8039289442413837 1.5214178534318088
lfemur 3.627412554490558 -0.5949420331698982 -26.558788359902188
ltibia 20.236007120414076
lfoot -15.517190731136395 -0.30926420126596765
ltoes -19.535286269574772
rfemur -30.896587895745995 -1.8753075538836899 20.855409713831435
rtibia 34.94860165861947
rfoot -6.710691460150676 -14.44818353800682
rtoes -6.161358949500537
lowerback 12.126087477574576 -1.4412891724122854 -4.696226128361943
upperback -0.5938176482671862 -2.453747933622109 1.9615178564778668
thorax -7.164798910576329 -0.9815097420645762 5.185085610376044
lowerneck -13.419638995634557 -2.1497007719311494 -2.9595833065554444
upperneck 20.692409383373647 -2.341159991886847 0.09677090888500328
head 8.713117712399814 -1.3267003142236977 0.2591556111706752
lclavicle -2.7003079051483018e-15 -2.151714700646045e-15
lhumerus -24.963909246304098 3.4247706689866044 81.39089781091344
lradius 28.374994798480362
lwrist 9.687533733199611
lhand -29.653699782207422 20.34679754785513
lfingers 7.125020000000001
lthumb -2.9830597814349504 50.30559753530181
rclavicle -2.7003079051483018e-15 -2.151714700646045e-15
rhumerus -36.35879102570461 -21.703497428102384 -74.14500650459473
rradius 22.946411089989116
rwrist 6.759752351302785
rhand -17.628602524575818 22.973398402128222
rfingers 7.125020000000001
rthumb 8.628767474041952 -6.830311639636079
